  0
SECTION
  2
HEADER
  9
$ACADVER
  1
AC1009
  9
$INSBASE
 10
0.0
 20
0.0
 30
0.0
  9
$EXTMIN
 10
246.65771610878619
 20
142.49528589157299
 30
-0.0000000349181948
  9
$EXTMAX
 10
293.34503256872432
 20
180.10972650757731
 30
0.0000000814935746
  9
$LIMMIN
 10
0.0
 20
0.0
  9
$LIMMAX
 10
420.0
 20
297.0
  9
$ORTHOMODE
 70
     0
  9
$REGENMODE
 70
     1
  9
$FILLMODE
 70
     1
  9
$QTEXTMODE
 70
     0
  9
$MIRRTEXT
 70
     1
  9
$DRAGMODE
 70
     2
  9
$LTSCALE
 40
1.0
  9
$OSMODE
 70
   111
  9
$ATTMODE
 70
     1
  9
$TEXTSIZE
 40
2.5
  9
$TRACEWID
 40
1.0
  9
$TEXTSTYLE
  7
STANDARD
  9
$CLAYER
  8
0
  9
$CELTYPE
  6
BYLAYER
  9
$CECOLOR
 62
   256
  9
$DIMSCALE
 40
1.0
  9
$DIMASZ
 40
2.5
  9
$DIMEXO
 40
0.625
  9
$DIMDLI
 40
3.75
  9
$DIMRND
 40
0.0
  9
$DIMDLE
 40
0.0
  9
$DIMEXE
 40
1.25
  9
$DIMTP
 40
0.0
  9
$DIMTM
 40
0.0
  9
$DIMTXT
 40
2.5
  9
$DIMCEN
 40
2.5
  9
$DIMTSZ
 40
0.0
  9
$DIMTOL
 70
     0
  9
$DIMLIM
 70
     0
  9
$DIMTIH
 70
     0
  9
$DIMTOH
 70
     0
  9
$DIMSE1
 70
     0
  9
$DIMSE2
 70
     0
  9
$DIMTAD
 70
     1
  9
$DIMZIN
 70
     8
  9
$DIMBLK
  1

  9
$DIMASO
 70
     1
  9
$DIMSHO
 70
     1
  9
$DIMPOST
  1

  9
$DIMAPOST
  1

  9
$DIMALT
 70
     0
  9
$DIMALTD
 70
     4
  9
$DIMALTF
 40
0.0394
  9
$DIMLFAC
 40
1.0
  9
$DIMTOFL
 70
     1
  9
$DIMTVP
 40
0.0
  9
$DIMTIX
 70
     0
  9
$DIMSOXD
 70
     0
  9
$DIMSAH
 70
     0
  9
$DIMBLK1
  1

  9
$DIMBLK2
  1

  9
$DIMSTYLE
  2
STANDARD
  9
$DIMCLRD
 70
     0
  9
$DIMCLRE
 70
     0
  9
$DIMCLRT
 70
     0
  9
$DIMTFAC
 40
1.0
  9
$DIMGAP
 40
0.625
  9
$LUNITS
 70
     2
  9
$LUPREC
 70
     4
  9
$SKETCHINC
 40
1.0
  9
$FILLETRAD
 40
10.0
  9
$AUNITS
 70
     0
  9
$AUPREC
 70
     0
  9
$MENU
  1
.
  9
$ELEVATION
 40
0.0
  9
$PELEVATION
 40
0.0
  9
$THICKNESS
 40
0.0
  9
$LIMCHECK
 70
     0
  9
$BLIPMODE
 70
     0
  9
$CHAMFERA
 40
10.0
  9
$CHAMFERB
 40
10.0
  9
$SKPOLY
 70
     0
  9
$TDCREATE
 40
2461263.4610783099
  9
$TDUPDATE
 40
2453304.6144701159
  9
$TDINDWG
 40
0.0792478588
  9
$TDUSRTIMER
 40
0.0792478588
  9
$USRTIMER
 70
     1
  9
$ANGBASE
 50
0.0
  9
$ANGDIR
 70
     0
  9
$PDMODE
 70
     0
  9
$PDSIZE
 40
0.0
  9
$PLINEWID
 40
0.0
  9
$COORDS
 70
     2
  9
$SPLFRAME
 70
     0
  9
$SPLINETYPE
 70
     6
  9
$SPLINESEGS
 70
     8
  9
$ATTDIA
 70
     0
  9
$ATTREQ
 70
     1
  9
$HANDLING
 70
     1
  9
$HANDSEED
  5
176
  9
$SURFTAB1
 70
     6
  9
$SURFTAB2
 70
     6
  9
$SURFTYPE
 70
     6
  9
$SURFU
 70
     6
  9
$SURFV
 70
     6
  9
$UCSNAME
  2

  9
$UCSORG
 10
0.0
 20
0.0
 30
0.0
  9
$UCSXDIR
 10
1.0
 20
0.0
 30
0.0
  9
$UCSYDIR
 10
0.0
 20
1.0
 30
0.0
  9
$PUCSNAME
  2

  9
$PUCSORG
 10
0.0
 20
0.0
 30
0.0
  9
$PUCSXDIR
 10
1.0
 20
0.0
 30
0.0
  9
$PUCSYDIR
 10
0.0
 20
1.0
 30
0.0
  9
$USERI1
 70
     0
  9
$USERI2
 70
     0
  9
$USERI3
 70
     0
  9
$USERI4
 70
     0
  9
$USERI5
 70
     0
  9
$USERR1
 40
0.0
  9
$USERR2
 40
0.0
  9
$USERR3
 40
0.0
  9
$USERR4
 40
0.0
  9
$USERR5
 40
0.0
  9
$WORLDVIEW
 70
     1
  9
$SHADEDGE
 70
     3
  9
$SHADEDIF
 70
    70
  9
$TILEMODE
 70
     1
  9
$MAXACTVP
 70
    48
  9
$PLIMCHECK
 70
     0
  9
$PEXTMIN
 10
1.0000000000000000E+020
 20
1.0000000000000000E+020
 30
1.0000000000000000E+020
  9
$PEXTMAX
 10
-1.0000000000000000E+020
 20
-1.0000000000000000E+020
 30
-1.0000000000000000E+020
  9
$PLIMMIN
 10
0.0
 20
0.0
  9
$PLIMMAX
 10
420.0
 20
297.0
  9
$UNITMODE
 70
     0
  9
$VISRETAIN
 70
     1
  9
$PLINEGEN
 70
     0
  9
$PSLTSCALE
 70
     1
  0
ENDSEC
  0
SECTION
  2
TABLES
  0
TABLE
  2
VPORT
 70
     2
  0
VPORT
  2
*ACTIVE
 70
     0
 10
0.0
 20
0.0
 11
1.0
 21
1.0
 12
270.00137433875523
 22
161.30250619957519
 13
0.0
 23
0.0
 14
10.0
 24
10.0
 15
10.0
 25
10.0
 16
0.0
 26
0.0
 36
1.0
 17
0.0
 27
0.0
 37
0.0
 40
38.07037322953159
 41
2.1295546558704448
 42
50.0
 43
0.0
 44
0.0
 50
0.0
 51
0.0
 71
     0
 72
   100
 73
     1
 74
     1
 75
     0
 76
     0
 77
     0
 78
     0
  0
ENDTAB
  0
TABLE
  2
LTYPE
 70
     2
  0
LTYPE
  2
CONTINUOUS
 70
     0
  3
Solid line
 72
    65
 73
     0
 40
0.0
  0
LTYPE
  2
CENTER
 70
     0
  3
Center ____ _ ____ _ ____ _ ____ _ ____ _ ____
 72
    65
 73
     4
 40
50.799999999999997
 49
31.75
 49
-6.3499999999999988
 49
6.3499999999999988
 49
-6.3499999999999988
  0
ENDTAB
  0
TABLE
  2
LAYER
 70
     1
  0
LAYER
  2
0
 70
     0
 62
     7
  6
CONTINUOUS
  0
ENDTAB
  0
TABLE
  2
STYLE
 70
     1
  0
STYLE
  2
STANDARD
 70
     0
 40
0.0
 41
1.0
 50
0.0
 71
     0
 42
2.5
  3
txt
  4

  0
ENDTAB
  0
TABLE
  2
VIEW
 70
     0
  0
ENDTAB
  0
TABLE
  2
UCS
 70
     0
  0
ENDTAB
  0
TABLE
  2
APPID
 70
     1
  0
APPID
  2
ACAD
 70
     0
  0
ENDTAB
  0
TABLE
  2
DIMSTYLE
 70
     1
  0
DIMSTYLE
  2
STANDARD
 70
     0
  3

  4

  5

  6

  7

 40
1.0
 41
0.18
 42
0.0625
 43
0.38
 44
0.18
 45
0.0
 46
0.0
 47
0.0
 48
0.0
140
0.18
141
0.09
142
0.0
143
25.399999999999999
144
1.0
145
0.0
146
1.0
147
0.09
 71
     0
 72
     0
 73
     1
 74
     1
 75
     0
 76
     0
 77
     0
 78
     0
170
     0
171
     2
172
     0
173
     0
174
     0
175
     0
176
     0
177
     0
178
     0
  0
ENDTAB
  0
ENDSEC
  0
SECTION
  2
BLOCKS
  0
BLOCK
  8
0
  2
$MODEL_SPACE
 70
     0
 10
0.0
 20
0.0
 30
0.0
  3
$MODEL_SPACE
  1

  0
ENDBLK
  5
161
  8
0
  0
BLOCK
 67
     1
  8
0
  2
$PAPER_SPACE
 70
     0
 10
0.0
 20
0.0
 30
0.0
  3
$PAPER_SPACE
  1

  0
ENDBLK
  5
15F
 67
     1
  8
0
  0
ENDSEC
  0
SECTION
  2
ENTITIES
  0
CIRCLE
  5
9A
  8
0
  6
CONTINUOUS
 62
     7
 10
277.0
 20
177.0
 30
0.0
 40
2.0
  0
CIRCLE
  5
9B
  8
0
  6
CONTINUOUS
 62
     7
 10
263.0
 20
177.0
 30
0.0
 40
2.0
  0
LINE
  5
9C
  8
0
  6
CENTER
 62
     5
 10
270.0
 20
160.0
 30
0.0
 11
270.0
 21
180.0
 31
0.0
  0
LINE
  5
9D
  8
0
  6
CONTINUOUS
 62
     7
 10
280.0
 20
172.44999999999999
 30
0.0
 11
280.0
 21
179.5
 31
0.0
  0
LINE
  5
9E
  8
0
  6
CONTINUOUS
 62
     7
 10
260.0
 20
172.44999999999999
 30
0.0
 11
260.0
 21
179.5
 31
0.0
  0
ARC
  5
9F
  8
0
  6
CONTINUOUS
 62
     7
 10
273.85000000000002
 20
178.19999999999999
 30
0.0
 40
0.3
 50
0.0
 51
90.0
  0
ARC
  5
A0
  8
0
  6
CONTINUOUS
 62
     7
 10
272.44999999999999
 20
178.80000000000001
 30
0.0
 40
0.3
 50
180.0
 51
270.0
  0
ARC
  5
A1
  8
0
  6
CONTINUOUS
 62
     7
 10
267.55000000000001
 20
178.80000000000001
 30
0.0
 40
0.3
 50
270.0
 51
0.0
  0
ARC
  5
A2
  8
0
  6
CONTINUOUS
 62
     7
 10
266.14999999999998
 20
178.19999999999999
 30
0.0
 40
0.3
 50
90.0
 51
180.0
  0
TEXT
  5
A3
  8
0
  6
CONTINUOUS
 62
     7
 10
246.66666666666671
 20
142.5
 30
0.0
 40
5.0
  1
AFS-2020-4
 72
     1
 11
270.0
 21
145.0
 31
0.0
 73
     2
  0
CIRCLE
  5
A4
  8
0
  6
CONTINUOUS
 62
     7
 10
270.0
 20
170.0
 30
0.0
 40
1.649999999999999
  0
LINE
  5
A5
  8
0
  6
CENTER
 62
     5
 10
260.0
 20
170.0
 30
0.0
 11
280.0
 21
170.0
 31
0.0
  0
LINE
  5
A6
  8
0
  6
CONTINUOUS
 62
     7
 10
268.44999999999999
 20
167.0
 30
0.0
 11
271.55000000000001
 21
167.0
 31
0.0
  0
LINE
  5
A7
  8
0
  6
CONTINUOUS
 62
     7
 10
268.44999999999999
 20
173.0
 30
0.0
 11
271.55000000000001
 21
173.0
 31
0.0
  0
LINE
  5
A8
  8
0
  6
CONTINUOUS
 62
     7
 10
265.2000000000001
 20
167.55000000000001
 30
0.0
 11
265.2000000000001
 21
166.15000000000001
 31
0.0
  0
LINE
  5
A9
  8
0
  6
CONTINUOUS
 62
     7
 10
261.5
 20
167.55000000000001
 30
0.0
 11
261.5
 21
166.15000000000001
 31
0.0
  0
ARC
  5
AA
  8
0
  6
CONTINUOUS
 62
     7
 10
268.44999999999999
 20
166.40000000000001
 30
0.0
 40
0.6
 50
90.0
 51
180.0
  0
LINE
  5
AB
  8
0
  6
CONTINUOUS
 62
     7
 10
260.0
 20
167.55000000000001
 30
0.0
 11
260.0
 21
160.5
 31
0.0
  0
CIRCLE
  5
AC
  8
0
  6
CONTINUOUS
 62
     7
 10
263.0
 20
163.0
 30
0.0
 40
2.0
  0
ARC
  5
AD
  8
0
  6
CONTINUOUS
 62
     7
 10
261.80000000000001
 20
166.15000000000001
 30
0.0
 40
0.3
 50
180.0
 51
270.0
  0
LINE
  5
AE
  8
0
  6
CONTINUOUS
 62
     7
 10
260.5
 20
160.0
 30
0.0
 11
267.55000000000001
 21
160.0
 31
0.0
  0
ARC
  5
AF
  8
0
  6
CONTINUOUS
 62
     7
 10
260.5
 20
160.5
 30
0.0
 40
0.5
 50
180.0
 51
270.0
  0
LINE
  5
B0
  8
0
  6
CONTINUOUS
 62
     7
 10
267.85000000000002
 20
161.19999999999999
 30
0.0
 11
267.85000000000002
 21
160.30000000000001
 31
0.0
  0
ARC
  5
B1
  8
0
  6
CONTINUOUS
 62
     7
 10
267.55000000000001
 20
160.30000000000001
 30
0.0
 40
0.3
 50
270.0
 51
0.0
  0
ARC
  5
B2
  8
0
  6
CONTINUOUS
 62
     7
 10
266.14999999999998
 20
164.90000000000001
 30
0.0
 40
0.3
 50
90.0
 51
180.0
  0
ARC
  5
B3
  8
0
  6
CONTINUOUS
 62
     7
 10
266.14999999999998
 20
161.80000000000001
 30
0.0
 40
0.3
 50
180.0
 51
270.0
  0
LINE
  5
B4
  8
0
  6
CONTINUOUS
 62
     7
 10
264.89999999999998
 20
165.84999999999999
 30
0.0
 11
261.80000000000001
 21
165.84999999999999
 31
0.0
  0
ARC
  5
B5
  8
0
  6
CONTINUOUS
 62
     7
 10
264.89999999999998
 20
166.15000000000001
 30
0.0
 40
0.3
 50
270.0
 51
0.0
  0
ARC
  5
B6
  8
0
  6
CONTINUOUS
 62
     7
 10
267.55000000000001
 20
161.19999999999999
 30
0.0
 40
0.3
 50
0.0
 51
90.0
  0
LINE
  5
B7
  8
0
  6
CONTINUOUS
 62
     7
 10
265.85000000000002
 20
164.90000000000001
 30
0.0
 11
265.85000000000002
 21
161.80000000000001
 31
0.0
  0
ARC
  5
B8
  8
0
  6
CONTINUOUS
 62
     7
 10
267.55000000000001
 20
165.5
 30
0.0
 40
0.3
 50
270.0
 51
0.0
  0
LINE
  5
B9
  8
0
  6
CONTINUOUS
 62
     7
 10
266.14999999999998
 20
165.19999999999999
 30
0.0
 11
267.55000000000001
 21
165.19999999999999
 31
0.0
  0
LINE
  5
BA
  8
0
  6
CONTINUOUS
 62
     7
 10
266.14999999999998
 20
161.5
 30
0.0
 11
267.55000000000001
 21
161.5
 31
0.0
  0
LINE
  5
BB
  8
0
  6
CONTINUOUS
 62
     7
 10
267.85000000000002
 20
166.40000000000001
 30
0.0
 11
267.85000000000002
 21
165.5
 31
0.0
  0
ARC
  5
BC
  8
0
  6
CONTINUOUS
 62
     7
 10
261.80000000000001
 20
173.84999999999999
 30
0.0
 40
0.3
 50
90.0
 51
180.0
  0
LINE
  5
BD
  8
0
  6
CONTINUOUS
 62
     7
 10
261.5
 20
173.84999999999999
 30
0.0
 11
261.5
 21
172.44999999999999
 31
0.0
  0
ARC
  5
BE
  8
0
  6
CONTINUOUS
 62
     7
 10
261.19999999999999
 20
167.55000000000001
 30
0.0
 40
0.3
 50
0.0
 51
90.0
  0
ARC
  5
BF
  8
0
  6
CONTINUOUS
 62
     7
 10
260.30000000000001
 20
167.55000000000001
 30
0.0
 40
0.3
 50
90.0
 51
180.0
  0
LINE
  5
C0
  8
0
  6
CONTINUOUS
 62
     7
 10
261.19999999999999
 20
167.84999999999999
 30
0.0
 11
260.30000000000001
 21
167.84999999999999
 31
0.0
  0
ARC
  5
C1
  8
0
  6
CONTINUOUS
 62
     7
 10
261.19999999999999
 20
172.44999999999999
 30
0.0
 40
0.3
 50
270.0
 51
0.0
  0
ARC
  5
C2
  8
0
  6
CONTINUOUS
 62
     7
 10
260.30000000000001
 20
172.44999999999999
 30
0.0
 40
0.3
 50
180.0
 51
270.0
  0
LINE
  5
C3
  8
0
  6
CONTINUOUS
 62
     7
 10
261.19999999999999
 20
172.15000000000001
 30
0.0
 11
260.30000000000001
 21
172.15000000000001
 31
0.0
  0
LINE
  5
C4
  8
0
  6
CONTINUOUS
 62
     7
 10
265.2000000000001
 20
173.84999999999999
 30
0.0
 11
265.2000000000001
 21
172.44999999999999
 31
0.0
  0
LINE
  5
C5
  8
0
  6
CONTINUOUS
 62
     7
 10
266.39999999999998
 20
172.15000000000001
 30
0.0
 11
265.5
 21
172.15000000000001
 31
0.0
  0
LINE
  5
C6
  8
0
  6
CONTINUOUS
 62
     7
 10
266.39999999999998
 20
167.84999999999999
 30
0.0
 11
265.5
 21
167.84999999999999
 31
0.0
  0
ARC
  5
C7
  8
0
  6
CONTINUOUS
 62
     7
 10
265.5
 20
167.55000000000001
 30
0.0
 40
0.3
 50
90.0
 51
180.0
  0
ARC
  5
C8
  8
0
  6
CONTINUOUS
 62
     7
 10
265.5
 20
172.44999999999999
 30
0.0
 40
0.3
 50
180.0
 51
270.0
  0
ARC
  5
C9
  8
0
  6
CONTINUOUS
 62
     7
 10
266.39999999999998
 20
168.44999999999999
 30
0.0
 40
0.6
 50
270.0
 51
0.0
  0
ARC
  5
CA
  8
0
  6
CONTINUOUS
 62
     7
 10
266.39999999999998
 20
171.55000000000001
 30
0.0
 40
0.6
 50
0.0
 51
90.0
  0
LINE
  5
CB
  8
0
  6
CONTINUOUS
 62
     7
 10
267.0
 20
171.55000000000001
 30
0.0
 11
267.0
 21
168.44999999999999
 31
0.0
  0
ARC
  5
CC
  8
0
  6
CONTINUOUS
 62
     7
 10
266.14999999999998
 20
175.09999999999999
 30
0.0
 40
0.3
 50
180.0
 51
270.0
  0
LINE
  5
CD
  8
0
  6
CONTINUOUS
 62
     7
 10
264.89999999999998
 20
174.15000000000001
 30
0.0
 11
261.80000000000001
 21
174.15000000000001
 31
0.0
  0
ARC
  5
CE
  8
0
  6
CONTINUOUS
 62
     7
 10
264.89999999999998
 20
173.84999999999999
 30
0.0
 40
0.3
 50
0.0
 51
90.0
  0
LINE
  5
CF
  8
0
  6
CONTINUOUS
 62
     7
 10
265.85000000000002
 20
175.09999999999999
 30
0.0
 11
265.85000000000002
 21
178.19999999999999
 31
0.0
  0
ARC
  5
D0
  8
0
  6
CONTINUOUS
 62
     7
 10
267.55000000000001
 20
174.5
 30
0.0
 40
0.3
 50
0.0
 51
90.0
  0
LINE
  5
D1
  8
0
  6
CONTINUOUS
 62
     7
 10
266.14999999999998
 20
174.80000000000001
 30
0.0
 11
267.55000000000001
 21
174.80000000000001
 31
0.0
  0
ARC
  5
D2
  8
0
  6
CONTINUOUS
 62
     7
 10
268.44999999999999
 20
173.59999999999999
 30
0.0
 40
0.6
 50
180.0
 51
270.0
  0
LINE
  5
D3
  8
0
  6
CONTINUOUS
 62
     7
 10
267.85000000000002
 20
173.59999999999999
 30
0.0
 11
267.85000000000002
 21
174.5
 31
0.0
  0
LINE
  5
D4
  8
0
  6
CONTINUOUS
 62
     7
 10
274.80000000000001
 20
167.55000000000001
 30
0.0
 11
274.80000000000001
 21
166.15000000000001
 31
0.0
  0
LINE
  5
D5
  8
0
  6
CONTINUOUS
 62
     7
 10
278.5
 20
167.55000000000001
 30
0.0
 11
278.5
 21
166.15000000000001
 31
0.0
  0
ARC
  5
D6
  8
0
  6
CONTINUOUS
 62
     7
 10
271.55000000000001
 20
166.40000000000001
 30
0.0
 40
0.6
 50
0.0
 51
90.0
  0
LINE
  5
D7
  8
0
  6
CONTINUOUS
 62
     7
 10
280.0
 20
167.55000000000001
 30
0.0
 11
280.0
 21
160.5
 31
0.0
  0
CIRCLE
  5
D8
  8
0
  6
CONTINUOUS
 62
     7
 10
277.0
 20
163.0
 30
0.0
 40
2.0
  0
LINE
  5
D9
  8
0
  6
CONTINUOUS
 62
     7
 10
275.10000000000002
 20
165.84999999999999
 30
0.0
 11
278.19999999999999
 21
165.84999999999999
 31
0.0
  0
LINE
  5
DA
  8
0
  6
CONTINUOUS
 62
     7
 10
279.5
 20
160.0
 30
0.0
 11
272.44999999999999
 21
160.0
 31
0.0
  0
LINE
  5
DB
  8
0
  6
CONTINUOUS
 62
     7
 10
272.14999999999998
 20
161.19999999999999
 30
0.0
 11
272.14999999999998
 21
160.30000000000001
 31
0.0
  0
ARC
  5
DC
  8
0
  6
CONTINUOUS
 62
     7
 10
272.44999999999999
 20
160.30000000000001
 30
0.0
 40
0.3
 50
180.0
 51
270.0
  0
ARC
  5
DD
  8
0
  6
CONTINUOUS
 62
     7
 10
273.85000000000002
 20
164.90000000000001
 30
0.0
 40
0.3
 50
0.0
 51
90.0
  0
ARC
  5
DE
  8
0
  6
CONTINUOUS
 62
     7
 10
273.85000000000002
 20
161.80000000000001
 30
0.0
 40
0.3
 50
270.0
 51
0.0
  0
ARC
  5
DF
  8
0
  6
CONTINUOUS
 62
     7
 10
272.44999999999999
 20
161.19999999999999
 30
0.0
 40
0.3
 50
90.0
 51
180.0
  0
ARC
  5
E0
  8
0
  6
CONTINUOUS
 62
     7
 10
272.44999999999999
 20
165.5
 30
0.0
 40
0.3
 50
180.0
 51
270.0
  0
LINE
  5
E1
  8
0
  6
CONTINUOUS
 62
     7
 10
272.14999999999998
 20
166.40000000000001
 30
0.0
 11
272.14999999999998
 21
165.5
 31
0.0
  0
LINE
  5
E2
  8
0
  6
CONTINUOUS
 62
     7
 10
272.44999999999999
 20
165.19999999999999
 30
0.0
 11
273.85000000000002
 21
165.19999999999999
 31
0.0
  0
LINE
  5
E3
  8
0
  6
CONTINUOUS
 62
     7
 10
272.44999999999999
 20
161.5
 30
0.0
 11
273.85000000000002
 21
161.5
 31
0.0
  0
ARC
  5
E4
  8
0
  6
CONTINUOUS
 62
     7
 10
275.10000000000002
 20
166.15000000000001
 30
0.0
 40
0.3
 50
180.0
 51
270.0
  0
LINE
  5
E5
  8
0
  6
CONTINUOUS
 62
     7
 10
274.14999999999998
 20
164.90000000000001
 30
0.0
 11
274.14999999999998
 21
161.80000000000001
 31
0.0
  0
ARC
  5
E6
  8
0
  6
CONTINUOUS
 62
     7
 10
279.5
 20
160.5
 30
0.0
 40
0.5
 50
270.0
 51
0.0
  0
ARC
  5
E7
  8
0
  6
CONTINUOUS
 62
     7
 10
278.19999999999999
 20
166.15000000000001
 30
0.0
 40
0.3
 50
270.0
 51
0.0
  0
LINE
  5
E8
  8
0
  6
CONTINUOUS
 62
     7
 10
275.10000000000002
 20
174.15000000000001
 30
0.0
 11
278.19999999999999
 21
174.15000000000001
 31
0.0
  0
LINE
  5
E9
  8
0
  6
CONTINUOUS
 62
     7
 10
274.80000000000001
 20
173.84999999999999
 30
0.0
 11
274.80000000000001
 21
172.44999999999999
 31
0.0
  0
LINE
  5
EA
  8
0
  6
CONTINUOUS
 62
     7
 10
273.60000000000002
 20
172.15000000000001
 30
0.0
 11
274.5
 21
172.15000000000001
 31
0.0
  0
LINE
  5
EB
  8
0
  6
CONTINUOUS
 62
     7
 10
273.60000000000002
 20
167.84999999999999
 30
0.0
 11
274.5
 21
167.84999999999999
 31
0.0
  0
ARC
  5
EC
  8
0
  6
CONTINUOUS
 62
     7
 10
273.60000000000002
 20
171.55000000000001
 30
0.0
 40
0.6
 50
90.0
 51
180.0
  0
ARC
  5
ED
  8
0
  6
CONTINUOUS
 62
     7
 10
273.60000000000002
 20
168.44999999999999
 30
0.0
 40
0.6
 50
180.0
 51
270.0
  0
LINE
  5
EE
  8
0
  6
CONTINUOUS
 62
     7
 10
273.0
 20
171.55000000000001
 30
0.0
 11
273.0
 21
168.44999999999999
 31
0.0
  0
ARC
  5
EF
  8
0
  6
CONTINUOUS
 62
     7
 10
274.5
 20
172.44999999999999
 30
0.0
 40
0.3
 50
270.0
 51
0.0
  0
ARC
  5
F0
  8
0
  6
CONTINUOUS
 62
     7
 10
274.5
 20
167.55000000000001
 30
0.0
 40
0.3
 50
0.0
 51
90.0
  0
ARC
  5
F1
  8
0
  6
CONTINUOUS
 62
     7
 10
273.85000000000002
 20
175.09999999999999
 30
0.0
 40
0.3
 50
270.0
 51
0.0
  0
ARC
  5
F2
  8
0
  6
CONTINUOUS
 62
     7
 10
272.44999999999999
 20
174.5
 30
0.0
 40
0.3
 50
90.0
 51
180.0
  0
LINE
  5
F3
  8
0
  6
CONTINUOUS
 62
     7
 10
272.44999999999999
 20
174.80000000000001
 30
0.0
 11
273.85000000000002
 21
174.80000000000001
 31
0.0
  0
ARC
  5
F4
  8
0
  6
CONTINUOUS
 62
     7
 10
271.55000000000001
 20
173.59999999999999
 30
0.0
 40
0.6
 50
270.0
 51
0.0
  0
LINE
  5
F5
  8
0
  6
CONTINUOUS
 62
     7
 10
272.14999999999998
 20
173.59999999999999
 30
0.0
 11
272.14999999999998
 21
174.5
 31
0.0
  0
ARC
  5
F6
  8
0
  6
CONTINUOUS
 62
     7
 10
275.10000000000002
 20
173.84999999999999
 30
0.0
 40
0.3
 50
90.0
 51
180.0
  0
LINE
  5
F7
  8
0
  6
CONTINUOUS
 62
     7
 10
274.14999999999998
 20
175.09999999999999
 30
0.0
 11
274.14999999999998
 21
178.19999999999999
 31
0.0
  0
LINE
  5
F8
  8
0
  6
CONTINUOUS
 62
     7
 10
278.5
 20
173.84999999999999
 30
0.0
 11
278.5
 21
172.44999999999999
 31
0.0
  0
LINE
  5
F9
  8
0
  6
CONTINUOUS
 62
     7
 10
278.80000000000001
 20
172.15000000000001
 30
0.0
 11
279.69999999999999
 21
172.15000000000001
 31
0.0
  0
ARC
  5
FA
  8
0
  6
CONTINUOUS
 62
     7
 10
278.80000000000001
 20
172.44999999999999
 30
0.0
 40
0.3
 50
180.0
 51
270.0
  0
ARC
  5
FB
  8
0
  6
CONTINUOUS
 62
     7
 10
279.69999999999999
 20
172.44999999999999
 30
0.0
 40
0.3
 50
270.0
 51
0.0
  0
LINE
  5
FC
  8
0
  6
CONTINUOUS
 62
     7
 10
278.80000000000001
 20
167.84999999999999
 30
0.0
 11
279.69999999999999
 21
167.84999999999999
 31
0.0
  0
ARC
  5
FD
  8
0
  6
CONTINUOUS
 62
     7
 10
278.80000000000001
 20
167.55000000000001
 30
0.0
 40
0.3
 50
90.0
 51
180.0
  0
ARC
  5
FE
  8
0
  6
CONTINUOUS
 62
     7
 10
279.69999999999999
 20
167.55000000000001
 30
0.0
 40
0.3
 50
0.0
 51
90.0
  0
ARC
  5
FF
  8
0
  6
CONTINUOUS
 62
     7
 10
278.19999999999999
 20
173.84999999999999
 30
0.0
 40
0.3
 50
0.0
 51
90.0
  0
LINE
  5
100
  8
0
  6
CONTINUOUS
 62
     7
 10
260.5
 20
180.0
 30
0.0
 11
267.55000000000001
 21
180.0
 31
0.0
  0
ARC
  5
101
  8
0
  6
CONTINUOUS
 62
     7
 10
260.5
 20
179.5
 30
0.0
 40
0.5
 50
90.0
 51
180.0
  0
LINE
  5
102
  8
0
  6
CONTINUOUS
 62
     7
 10
267.85000000000002
 20
178.80000000000001
 30
0.0
 11
267.85000000000002
 21
179.69999999999999
 31
0.0
  0
LINE
  5
103
  8
0
  6
CONTINUOUS
 62
     7
 10
266.14999999999998
 20
178.5
 30
0.0
 11
267.55000000000001
 21
178.5
 31
0.0
  0
ARC
  5
104
  8
0
  6
CONTINUOUS
 62
     7
 10
267.55000000000001
 20
179.69999999999999
 30
0.0
 40
0.3
 50
0.0
 51
90.0
  0
LINE
  5
105
  8
0
  6
CONTINUOUS
 62
     7
 10
279.5
 20
180.0
 30
0.0
 11
272.44999999999999
 21
180.0
 31
0.0
  0
LINE
  5
106
  8
0
  6
CONTINUOUS
 62
     7
 10
272.14999999999998
 20
178.80000000000001
 30
0.0
 11
272.14999999999998
 21
179.69999999999999
 31
0.0
  0
LINE
  5
107
  8
0
  6
CONTINUOUS
 62
     7
 10
272.44999999999999
 20
178.5
 30
0.0
 11
273.85000000000002
 21
178.5
 31
0.0
  0
ARC
  5
108
  8
0
  6
CONTINUOUS
 62
     7
 10
272.44999999999999
 20
179.69999999999999
 30
0.0
 40
0.3
 50
90.0
 51
180.0
  0
ARC
  5
109
  8
0
  6
CONTINUOUS
 62
     7
 10
279.5
 20
179.5
 30
0.0
 40
0.5
 50
0.0
 51
90.0
  0
ENDSEC
  0
EOF
